<svg xmlns="http://www.w3.org/2000/svg" viewBox="0 0 320 320" role="img" aria-label="japanese doodle bear happy">
  <rect width="320" height="320" fill="#ffffff"/>
  <g stroke="#171717" stroke-width="6" stroke-linecap="round" stroke-linejoin="round" fill="none">
    <circle cx="118" cy="72" r="12"/>
    <circle cx="202" cy="72" r="12"/>
    <path d="M88 200 C86 122 108 96 160 96 C212 96 234 122 232 200 C231 232 210 252 160 252 C110 252 89 232 88 200 Z"/>
    <path d="M112 172 C92 156 84 146 78 128"/>
    <path d="M208 172 C228 156 236 146 242 128"/>
  </g>
  <g fill="#171717">
    <path d="M132 146 Q140 138 148 146 Q140 151 132 146 Z"/>
    <path d="M172 146 Q180 138 188 146 Q180 151 172 146 Z"/>
    <ellipse cx="160" cy="166" rx="6" ry="4"/>
  </g>
  <path d="M136 184 Q160 206 184 184" stroke="#171717" stroke-width="6" fill="none" stroke-linecap="round"/>
  <text x="260" y="108" font-size="28" font-family="'Yu Mincho', 'Noto Serif JP', serif" fill="#171717" transform="rotate(90 260 108)">やなやつ</text>
</svg>